<?xml version="1.0" standalone="no"?>
<svg xmlns="http://www.w3.org/2000/svg" width="341.32" height="28.480000000000004" viewBox="0 0 341.32 28.480000000000004"><g fill="#E2003D" color="#E2003D" transform="translate(0 0) scale(0.2966667)"><svg width="96.0" height="96.0" x="0.0" y="0.0" viewBox="0 0 96 96"><path d="M81,76c0,1.105-0.895,2-2,2s-2-0.895-2-2s0.895-2,2-2S81,74.895,81,76z"></path><path d="M82,60H14C6.28,60,0,66.28,0,74v4c0,7.721,6.28,14,14,14h68c7.721,0,14-6.279,14-14v-4C96,66.28,89.721,60,82,60z M79,82  c-3.309,0-6-2.691-6-6s2.691-6,6-6s6,2.691,6,6S82.309,82,79,82z"></path><path d="M82,56c4.244,0,8.084,1.536,11.168,3.996l-5.645-42.62C86.516,9.752,79.952,4,72.256,4h-48.54  C16.044,4,9.48,9.736,8.456,17.34l-5.76,42.768C5.796,57.58,9.7,56,14.004,56H82z"></path></svg></g><path fill="#E2003D" fill-rule="nonzero" d="M15 0Q18.96 0 22.12 1.20Q25.28 2.40 27.14 4.74Q29 7.08 29 10.44L29 10.44L20.56 10.44Q20.56 8.72 19.04 7.66Q17.52 6.60 15.36 6.60L15.36 6.60Q12.24 6.60 10.64 8.26Q9.04 9.92 9.04 12.96L9.04 12.96L9.04 15.52Q9.04 18.56 10.64 20.22Q12.24 21.88 15.36 21.88L15.36 21.88Q17.52 21.88 19.04 20.86Q20.56 19.84 20.56 18.24L20.56 18.24L14.32 18.24L14.32 12.64L29 12.64L29 28L24.44 28L23.56 25.28Q19.80 28.48 13.72 28.48L13.72 28.48Q6.88 28.48 3.44 24.90Q0 21.32 0 14.24L0 14.24Q0 7.24 3.90 3.62Q7.80 0 15 0L15 0ZM60.60 8.92Q60.60 11.44 59.24 13.48Q57.88 15.52 55.28 16.48L55.28 16.48L61.40 28L51.48 28L46.60 17.96L43.32 17.96L43.32 28L34.48 28L34.48 0.48L51.32 0.48Q54.28 0.48 56.38 1.62Q58.48 2.76 59.54 4.70Q60.60 6.64 60.60 8.92L60.60 8.92ZM51.60 9.28Q51.60 8.20 50.88 7.48Q50.16 6.76 49.12 6.76L49.12 6.76L43.32 6.76L43.32 11.84L49.12 11.84Q50.16 11.84 50.88 11.10Q51.60 10.36 51.60 9.28L51.60 9.28ZM93.40 28L84.04 28L82.88 24.12L73.24 24.12L72.08 28L63.04 28L73.08 0.48L83.36 0.48L93.40 28ZM78 8.16L75.08 17.96L81.04 17.96L78.16 8.16L78 8.16ZM108.28 0Q113.56 0 116.96 2.14Q120.36 4.28 120.44 8.48L120.44 8.48L120.44 8.96L112.16 8.96L112.16 8.80Q112.16 7.60 111.28 6.80Q110.40 6 108.60 6L108.60 6Q106.84 6 105.90 6.52Q104.96 7.04 104.96 7.80L104.96 7.80Q104.96 8.88 106.24 9.40Q107.52 9.92 110.36 10.48L110.36 10.48Q113.68 11.16 115.82 11.90Q117.96 12.64 119.56 14.32Q121.16 16 121.20 18.88L121.20 18.88Q121.20 23.76 117.90 26.12Q114.60 28.48 109.08 28.48L109.08 28.48Q102.64 28.48 99.06 26.32Q95.48 24.16 95.48 18.68L95.48 18.68L103.84 18.68Q103.84 20.76 104.92 21.46Q106 22.16 108.28 22.16L108.28 22.16Q109.96 22.16 111.06 21.80Q112.16 21.44 112.16 20.32L112.16 20.32Q112.16 19.32 110.94 18.82Q109.72 18.32 106.96 17.76L106.96 17.76Q103.60 17.04 101.40 16.26Q99.20 15.48 97.56 13.68Q95.92 11.88 95.92 8.80L95.92 8.80Q95.92 4.28 99.42 2.14Q102.92 0 108.28 0L108.28 0ZM137.16 0Q142.44 0 145.84 2.14Q149.24 4.28 149.32 8.48L149.32 8.48L149.32 8.96L141.04 8.96L141.04 8.80Q141.04 7.60 140.16 6.80Q139.28 6 137.48 6L137.48 6Q135.72 6 134.78 6.52Q133.84 7.04 133.84 7.80L133.84 7.80Q133.84 8.88 135.12 9.40Q136.40 9.92 139.24 10.48L139.24 10.48Q142.56 11.16 144.70 11.90Q146.84 12.64 148.44 14.32Q150.04 16 150.08 18.88L150.08 18.88Q150.08 23.76 146.78 26.12Q143.48 28.48 137.96 28.48L137.96 28.48Q131.52 28.48 127.94 26.32Q124.36 24.16 124.36 18.68L124.36 18.68L132.72 18.68Q132.72 20.76 133.80 21.46Q134.88 22.16 137.16 22.16L137.16 22.16Q138.84 22.16 139.94 21.80Q141.04 21.44 141.04 20.32L141.04 20.32Q141.04 19.32 139.82 18.82Q138.60 18.32 135.84 17.76L135.84 17.76Q132.48 17.04 130.28 16.26Q128.08 15.48 126.44 13.68Q124.80 11.88 124.80 8.80L124.80 8.80Q124.80 4.28 128.30 2.14Q131.80 0 137.16 0L137.16 0ZM163.28 20.16L153.08 20.16L153.08 13.84L163.28 13.84L163.28 20.16ZM167.80 28L167.80 0.48L190.04 0.48L190.04 7.08L176.64 7.08L176.64 11.80L188.16 11.80L188.16 18.12L176.64 18.12L176.64 28L167.80 28ZM194.48 28L194.48 0.48L218.28 0.48L218.28 7.08L203.32 7.08L203.32 10.88L216.12 10.88L216.12 17.20L203.32 17.20L203.32 21.40L218.56 21.40L218.56 28L194.48 28ZM249.48 8.92Q249.48 11.44 248.12 13.48Q246.76 15.52 244.16 16.48L244.16 16.48L250.28 28L240.36 28L235.48 17.96L232.20 17.96L232.20 28L223.36 28L223.36 0.48L240.20 0.48Q243.16 0.48 245.26 1.62Q247.36 2.76 248.42 4.70Q249.48 6.64 249.48 8.92L249.48 8.92ZM240.48 9.28Q240.48 8.20 239.76 7.48Q239.04 6.76 238 6.76L238 6.76L232.20 6.76L232.20 11.84L238 11.84Q239.04 11.84 239.76 11.10Q240.48 10.36 240.48 9.28L240.48 9.28ZM263.72 28L254.88 28L254.88 0.48L263.72 0.48L263.72 28ZM297.84 28L288.48 28L287.32 24.12L277.68 24.12L276.52 28L267.48 28L277.52 0.48L287.80 0.48L297.84 28ZM282.44 8.16L279.52 17.96L285.48 17.96L282.60 8.16L282.44 8.16Z" transform="translate(43.481 0.001) scale(1)"></path></svg>