<?xml version="1.0" standalone="no"?>
<!DOCTYPE svg PUBLIC "-//W3C//DTD SVG 20010904//EN"
 "http://www.w3.org/TR/2001/REC-SVG-20010904/DTD/svg10.dtd">
<svg version="1.0" xmlns="http://www.w3.org/2000/svg"
 width="300.000000pt" height="300.000000pt" viewBox="0 0 300.000000 300.000000"
 preserveAspectRatio="xMidYMid meet">
<metadata>
Created by potrace 1.14, written by Peter Selinger 2001-2017
</metadata>
<g transform="translate(0.000000,300.000000) scale(0.100000,-0.100000)"
fill="#000000" stroke="none">
<path d="M0 1500 l0 -1500 1500 0 1500 0 0 1500 0 1500 -1500 0 -1500 0 0
-1500z m2026 741 c57 -26 109 -75 133 -125 16 -32 33 -134 71 -416 28 -206 50
-380 50 -387 0 -9 -17 -5 -52 14 l-53 28 -675 0 -675 0 -52 -28 -53 -27 0 22
c0 13 22 187 50 386 53 396 61 424 128 483 80 70 63 69 602 69 450 0 488 -2
526 -19z m190 -986 c30 -19 60 -49 79 -79 27 -44 30 -59 33 -144 6 -145 -32
-222 -133 -268 l-50 -24 -645 0 -645 0 -50 24 c-97 46 -134 115 -135 249 0
132 38 204 132 251 l53 26 656 -2 656 -3 49 -30z"/>
<path d="M1983 1101 c-77 -48 -55 -170 34 -187 98 -18 162 92 96 166 -37 40
-86 48 -130 21z m80 -72 c14 -22 2 -49 -22 -49 -26 0 -42 29 -29 53 11 21 36
19 51 -4z"/>
</g>
</svg>
